<svg width="22" height="24" viewBox="0 0 22 24" fill="none" xmlns="http://www.w3.org/2000/svg">
<path d="M1.04639 6.69782H5.90054C6.04881 5.05399 6.5065 3.57776 7.16404 2.43674C8.0343 0.928284 9.27201 0 10.6709 0C12.0698 0 13.301 0.93473 14.1777 2.43674C14.8353 3.57131 15.293 5.05399 15.4412 6.69782H20.2889C20.8627 6.69782 21.3784 7.16841 21.3333 7.74214L20.3598 21.3247C20.2374 23.0266 19.1673 24 17.6137 24H3.7281C2.00046 24 1.08507 22.7945 0.981925 21.3247L0.00206945 7.74859C-0.036609 7.17486 0.472658 6.69782 1.04639 6.69782ZM7.11246 6.69782H14.2164C14.0746 5.27317 13.6814 4.00967 13.1205 3.04271C12.4759 1.91459 11.5992 1.21193 10.6709 1.21193C9.73616 1.21193 8.86589 1.91458 8.20835 3.04915C7.64752 4.00967 7.26073 5.27961 7.11246 6.69782Z" fill="#EA501F"/>
<path d="M7.1447 19.236C6.91908 19.0813 6.86106 18.7783 7.01577 18.5527C7.17049 18.3271 7.47347 18.2691 7.69909 18.4238C7.84091 18.5205 7.98918 18.6172 8.15034 18.7139C9.28491 19.4036 10.3292 19.7453 11.1995 19.7453C11.986 19.7453 12.6242 19.4488 13.0303 18.8492C13.0561 18.8041 13.0818 18.7783 13.0883 18.759C13.2043 18.572 13.2881 18.3722 13.3462 18.1788C13.4622 17.7791 13.4428 17.3666 13.2817 16.9927C13.1076 16.5994 12.7724 16.2191 12.2503 15.9032C11.9022 15.6905 11.4702 15.5035 10.9481 15.3617C9.62012 14.9878 8.64027 14.4592 8.11166 13.7501C7.53149 12.9701 7.48636 12.0289 8.10522 10.8879C8.51779 10.1337 9.36227 9.66309 10.4324 9.57929C11.3542 9.50838 12.463 9.72756 13.5911 10.3013C13.8361 10.4238 13.9328 10.7203 13.8038 10.9653C13.6749 11.2102 13.3848 11.3069 13.1399 11.178C12.1794 10.6881 11.264 10.5011 10.5033 10.5591C9.77484 10.6172 9.22045 10.9008 8.97548 11.3521C8.56291 12.1063 8.56936 12.6994 8.90457 13.1506C9.29136 13.6728 10.0972 14.0789 11.2188 14.3948C11.8248 14.5688 12.3405 14.788 12.766 15.0458C13.4686 15.4713 13.9392 16.0064 14.1906 16.5865C14.4485 17.1861 14.4807 17.8178 14.3067 18.4367C14.2293 18.7139 14.1068 18.9911 13.9392 19.2618C13.9005 19.3198 13.8748 19.3649 13.8554 19.3972C13.2559 20.2803 12.3341 20.7187 11.2124 20.7251C10.1616 20.7251 8.9368 20.3384 7.64752 19.5519C7.48636 19.4616 7.31875 19.3585 7.1447 19.236Z" fill="white"/>
</svg>
