<svg width="22" height="24" viewBox="0 0 22 24" fill="none" xmlns="http://www.w3.org/2000/svg">
<g clip-path="url(#clip0)">
<path fill-rule="evenodd" clip-rule="evenodd" d="M16.0286 4.87545C15.7439 2.12946 13.4188 -0.00576587 10.6018 1.1697e-05C7.78569 0.00578926 5.46971 2.13111 5.15608 4.86142L5.09665 5.49282L6.79278 5.596L6.82497 4.96954C7.08 2.99774 8.55081 1.67551 10.5985 1.67138C12.6454 1.66725 14.1534 3.00847 14.3754 5.00256L14.4811 5.84608L16.131 5.72805L16.0286 4.87545Z" fill="#414242"/>
<path fill-rule="evenodd" clip-rule="evenodd" d="M0.664422 4.61961C0.295483 4.62374 -0.000823646 4.92335 1.72011e-06 5.29146L0.0189851 15.0721L0.0222866 16.821L0.023112 17.2882L0.0346671 23.3307C0.0354925 23.7013 0.336751 24.0009 0.707341 24.0001L6.74902 23.9885L7.80384 23.9868L14.5 23.9745C18.1936 23.967 21.2086 20.9396 21.2012 17.2477L21.2004 16.7806L21.1797 5.80154C21.1781 5.12886 20.6342 4.5833 19.9615 4.58082C18.7309 4.57669 17.4722 4.57422 16.2506 4.6452L14.7278 4.77973C13.3685 4.94811 11.9959 5.25432 10.899 5.80897C10.7042 5.90719 10.4756 5.90801 10.2824 5.80732C9.13268 5.20893 7.88225 4.90024 6.45684 4.74259L4.93487 4.63034C3.50616 4.56679 2.04608 4.60558 0.664422 4.61961Z" fill="#60BB55"/>
<path fill-rule="evenodd" clip-rule="evenodd" d="M1.33792 4.61127C0.595091 4.62117 -0.000823337 5.22699 0.000827396 5.96899L0.0181601 15.072L0.0214616 16.8209L0.0222869 17.2881L0.033842 23.3198C0.0346674 23.6962 0.340053 24.0008 0.717245 24.0008L6.7482 23.9892L7.80301 23.9876L14.4992 23.9752C18.1927 23.9678 21.2078 20.9403 21.2004 17.2484L21.1995 16.7813L21.1789 5.813C21.1772 5.13455 20.6284 4.58403 19.9499 4.58155C18.7226 4.57743 17.4672 4.57495 16.2498 4.64593L14.727 4.78047C13.3701 4.94802 11.9992 5.25423 10.9031 5.80722C10.7058 5.90709 10.4731 5.90792 10.2766 5.80557C9.12773 5.20883 7.87895 4.90015 6.45602 4.74333L4.93487 4.63025C3.73643 4.5766 2.51572 4.59558 1.33792 4.61127Z" fill="url(#paint0_linear)"/>
<path fill-rule="evenodd" clip-rule="evenodd" d="M1.93466 23.9985L6.74902 23.9894L7.80384 23.9877L14.5 23.9754C16.1359 23.9721 17.6381 23.3761 18.8035 22.3931C17.4342 19.227 14.2788 17.0151 10.6117 17.0225C6.3611 17.0291 2.81368 20.0128 1.93466 23.9985Z" fill="#84C468"/>
<path fill-rule="evenodd" clip-rule="evenodd" d="M1.93466 23.9985L6.74902 23.9894L7.80384 23.9877L14.5 23.9754C16.1359 23.9721 17.6381 23.3761 18.8035 22.3931C17.4342 19.227 14.2788 17.0151 10.6117 17.0225C6.3611 17.0291 2.81368 20.0128 1.93466 23.9985Z" fill="url(#paint1_linear)"/>
<path fill-rule="evenodd" clip-rule="evenodd" d="M10.6249 23.9818L14.5776 23.9158C16.192 23.9125 17.6604 23.3405 18.8035 22.393C20.2751 21.1723 21.2053 19.3259 21.2012 17.2477L21.2004 16.7805L21.1781 5.13376C21.1773 4.83002 20.9321 4.58406 20.6284 4.58324C19.1889 4.57994 17.6934 4.56095 16.2506 4.64514L14.7278 4.77967C13.2381 4.96373 11.7309 5.31451 10.5903 5.97563L10.6249 23.9818Z" fill="#4F9D4D"/>
<path fill-rule="evenodd" clip-rule="evenodd" d="M10.6249 23.9818L14.5776 23.9158C16.192 23.9125 17.6604 23.3405 18.8035 22.393C20.2751 21.1723 21.2053 19.3259 21.2012 17.2477L21.2004 16.7805L21.1781 5.13376C21.1773 4.83002 20.9321 4.58406 20.6284 4.58324C19.1889 4.57994 17.6934 4.56095 16.2506 4.64514L14.7278 4.77967C13.2381 4.96373 11.7309 5.31451 10.5903 5.97563L10.6249 23.9818Z" fill="url(#paint2_linear)"/>
<path opacity="0.7" fill-rule="evenodd" clip-rule="evenodd" d="M15.4046 7.81129C18.0681 7.80634 20.2322 9.96219 20.238 12.6257C20.2429 15.2891 18.0871 17.4532 15.4236 17.4582C12.7593 17.4631 10.5961 15.3073 10.5911 12.6438C10.5853 9.98035 12.7404 7.81624 15.4046 7.81129Z" fill="url(#paint3_linear)"/>
<path fill-rule="evenodd" clip-rule="evenodd" d="M15.4063 8.44434C17.7198 8.44022 19.6 10.313 19.6041 12.6256C19.6082 14.9391 17.7355 16.8193 15.422 16.8234C13.1076 16.8276 11.2291 14.9548 11.2242 12.6413C11.22 10.3295 13.092 8.44929 15.4063 8.44434Z" fill="white"/>
<path fill-rule="evenodd" clip-rule="evenodd" d="M19.4605 11.4841C18.957 13.2422 17.3376 14.5314 15.417 14.5347C13.4964 14.538 11.8737 13.257 11.362 11.5023C11.2555 11.8737 11.1977 12.2658 11.1986 12.671C11.2027 14.9985 13.0936 16.8829 15.4211 16.8779C17.7487 16.8738 19.633 14.982 19.628 12.6545C19.6289 12.2484 19.5686 11.8564 19.4605 11.4841Z" fill="url(#paint4_linear)"/>
<path fill-rule="evenodd" clip-rule="evenodd" d="M14.9334 9.92025C16.457 9.76508 17.8188 10.8744 17.974 12.3963C18.1292 13.9208 17.0191 15.2818 15.4954 15.437C13.971 15.5922 12.6099 14.4837 12.4548 12.9584C12.4028 12.4508 12.4927 11.9605 12.6908 11.5272C12.9376 11.9944 13.4485 12.2874 14.0073 12.2304C14.741 12.1553 15.2759 11.5016 15.2008 10.7671C15.1669 10.4369 15.0159 10.1472 14.7939 9.93593C14.8409 9.93015 14.888 9.9252 14.9334 9.92025Z" fill="#303030"/>
<path fill-rule="evenodd" clip-rule="evenodd" d="M10.6249 23.9819L14.5248 23.9744C16.1607 23.9711 17.6389 23.3752 18.8043 22.393C17.4499 19.2624 14.2277 17.0653 10.6125 17.0232L10.6249 23.9819Z" fill="#60BB55"/>
<path fill-rule="evenodd" clip-rule="evenodd" d="M10.6249 23.9819L14.5248 23.9744C16.1607 23.9711 17.6389 23.3752 18.8043 22.393C17.4499 19.2624 14.2277 17.0653 10.6125 17.0232L10.6249 23.9819Z" fill="url(#paint5_linear)"/>
<path opacity="0.5" d="M13.1596 16.7928C12.7156 15.1413 11.0814 14.9927 10.6381 14.9671C10.6167 14.9663 10.6018 14.9622 10.5366 14.9688C10.1099 15.0109 8.46661 15.1809 8.06713 16.8655C8.05723 16.9199 8.06383 17.0759 8.06466 17.1337L8.06713 17.1395C8.06713 17.1395 8.20744 17.2328 8.42287 17.3689C8.70679 18.1555 10.0695 19.6412 10.6249 19.642C10.6439 19.642 10.6555 19.6404 10.6761 19.6404C11.1367 19.6412 12.3797 18.2991 12.7437 17.4284C12.9657 17.2856 13.1225 17.1775 13.153 17.1477C13.1654 17.0429 13.1795 16.8861 13.1596 16.7928Z" fill="url(#paint6_linear)"/>
<path opacity="0.7" fill-rule="evenodd" clip-rule="evenodd" d="M5.75776 7.81129C8.42122 7.80634 10.5853 9.96219 10.5911 12.6257C10.5961 15.2891 8.4402 17.4532 5.77675 17.4582C3.11246 17.4631 0.949178 15.3073 0.944225 12.6438C0.938448 9.98035 3.09348 7.81624 5.75776 7.81129Z" fill="url(#paint7_linear)"/>
<path fill-rule="evenodd" clip-rule="evenodd" d="M5.75858 8.44434C8.07208 8.44022 9.95227 10.313 9.9564 12.6256C9.96052 14.9391 8.08777 16.8193 5.77426 16.8234C3.45994 16.8276 1.5814 14.9548 1.57645 12.6413C1.57315 10.3295 3.44425 8.44929 5.75858 8.44434Z" fill="white"/>
<path fill-rule="evenodd" clip-rule="evenodd" d="M9.81359 11.4841C9.31012 13.2422 7.69075 14.5314 5.77012 14.5347C3.8495 14.538 2.22682 13.257 1.7151 11.5023C1.60863 11.8737 1.55085 12.2658 1.55167 12.671C1.5558 14.9985 3.44672 16.8829 5.77425 16.8779C8.10178 16.8738 9.98609 14.982 9.98114 12.6545C9.98114 12.2484 9.92172 11.8564 9.81359 11.4841Z" fill="url(#paint8_linear)"/>
<path fill-rule="evenodd" clip-rule="evenodd" d="M6.215 9.90601C7.74688 9.90271 8.99153 11.1424 8.99401 12.6718C8.99731 14.2045 7.75678 15.4483 6.22573 15.4508C4.69302 15.4541 3.45002 14.2144 3.44672 12.6825C3.44589 12.1725 3.58373 11.6938 3.82391 11.2819C4.02283 11.7713 4.50236 12.1139 5.06444 12.113C5.80149 12.1114 6.39906 11.5138 6.39823 10.7759C6.3974 10.4442 6.27608 10.1412 6.07634 9.90849C6.12173 9.90601 6.16878 9.90601 6.215 9.90601Z" fill="#303030"/>
<path fill-rule="evenodd" clip-rule="evenodd" d="M10.6753 19.2593C11.2332 19.2601 12.9384 17.3758 12.8419 16.6916C12.449 15.21 11.0228 15.0243 10.6315 15.0012C10.6126 15.0004 10.5994 14.9971 10.5424 15.0028C10.166 15.04 8.72577 15.2802 8.37499 16.7898C8.25944 17.3593 9.98198 19.2601 10.6249 19.2609C10.6431 19.2601 10.6547 19.2593 10.6753 19.2593Z" fill="url(#paint9_linear)"/>
<path d="M12.4936 17.5911C12.7255 17.2362 12.8724 16.9044 12.8419 16.6906C12.6842 16.0947 12.359 15.7093 12.0016 15.4592C11.4511 15.1612 10.8758 15.0985 10.6381 15.0853C10.6167 15.0845 10.6018 15.0803 10.5366 15.0869C10.308 15.1084 9.73271 15.1926 9.18714 15.5145C8.83389 15.7802 8.51612 16.1822 8.37498 16.7888C8.34197 16.9506 8.45835 17.2205 8.65561 17.5242C9.29609 17.9047 10.2742 18.4503 10.6142 18.4503C10.9633 18.4495 11.8638 17.965 12.4936 17.5911Z" fill="url(#paint10_linear)"/>
<path opacity="0.5" d="M12.4936 17.5911C12.7255 17.2362 12.8724 16.9044 12.8419 16.6906C12.6842 16.0947 12.359 15.7093 12.0016 15.4592C11.4511 15.1612 10.8758 15.0985 10.6381 15.0853C10.6167 15.0845 10.6018 15.0803 10.5366 15.0869C10.308 15.1084 9.73271 15.1926 9.18714 15.5145C8.83389 15.7802 8.51612 16.1822 8.37498 16.7888C8.34197 16.9506 8.45835 17.2205 8.65561 17.5242C9.29609 17.9047 10.2742 18.4503 10.6142 18.4503C10.9633 18.4495 11.8638 17.965 12.4936 17.5911Z" fill="url(#paint11_linear)"/>
<path opacity="0.8" fill-rule="evenodd" clip-rule="evenodd" d="M10.138 6.20496C8.98742 5.54302 7.73369 5.21535 6.286 5.05605L4.86719 4.95123C3.5367 4.8918 2.17732 4.92812 0.889752 4.94132C0.544749 4.94463 0.267426 5.22525 0.268251 5.57025C4.72936 4.7779 10.138 6.20496 10.138 6.20496Z" fill="url(#paint12_linear)"/>
<path opacity="0.8" fill-rule="evenodd" clip-rule="evenodd" d="M10.9551 6.20496C12.1056 5.54302 13.3594 5.21535 14.8071 5.05605L16.2259 4.95123C17.5564 4.8918 18.9157 4.92812 20.2033 4.94132C20.5483 4.94463 20.8256 5.22525 20.8248 5.57025C16.3637 4.7779 10.9551 6.20496 10.9551 6.20496Z" fill="url(#paint13_linear)"/>
<path d="M13.1431 16.5874C12.6991 15.0068 11.0805 14.8104 10.6373 14.7865C10.6158 14.7856 10.601 14.7815 10.5358 14.7881C10.1091 14.8285 8.47485 15.0869 8.07537 16.6988C8.06546 16.7508 8.06299 16.8045 8.06299 16.8598L8.06546 16.8656C8.06546 16.8656 10.0917 18.1515 10.6134 18.1515C11.1573 18.1515 13.0342 16.9786 13.1514 16.8738C13.1654 16.7731 13.1638 16.6774 13.1431 16.5874Z" fill="url(#paint14_linear)"/>
<path opacity="0.9" fill-rule="evenodd" clip-rule="evenodd" d="M8.07622 16.699C8.06632 16.751 8.06384 16.8046 8.06384 16.8599L8.06632 16.8657C8.06632 16.8657 10.0356 18.1153 10.5903 18.15C10.743 15.0449 10.5358 14.7891 10.5358 14.7891C10.1091 14.8287 8.47488 15.087 8.07622 16.699Z" fill="url(#paint15_linear)"/>
<path fill-rule="evenodd" clip-rule="evenodd" d="M11.1441 14.8541C10.927 14.8096 10.7463 14.7931 10.6373 14.7865C10.6159 14.7856 10.601 14.7815 10.5358 14.7881C10.5358 14.7881 10.743 15.044 10.5903 18.149C10.8519 17.4516 11.0525 15.7497 11.1441 14.8541Z" fill="url(#paint16_linear)"/>
<path fill-rule="evenodd" clip-rule="evenodd" d="M10.4722 14.7947C10.4681 14.7955 10.4648 14.7955 10.4607 14.7963C10.4648 14.7955 10.4689 14.7955 10.4722 14.7947Z" fill="white"/>
</g>
<defs>
<linearGradient id="paint0_linear" x1="12.6224" y1="8.57145" x2="1.70864" y2="28.6474" gradientUnits="userSpaceOnUse">
<stop stop-color="#519B4C" stop-opacity="0"/>
<stop offset="1" stop-color="#519B4C"/>
</linearGradient>
<linearGradient id="paint1_linear" x1="10.349" y1="20.7328" x2="10.3951" y2="26.3988" gradientUnits="userSpaceOnUse">
<stop stop-color="#519B4C" stop-opacity="0"/>
<stop offset="1" stop-color="#519B4C"/>
</linearGradient>
<linearGradient id="paint2_linear" x1="15.6966" y1="12.8763" x2="18.0459" y2="31.9469" gradientUnits="userSpaceOnUse">
<stop stop-color="#519B4C" stop-opacity="0"/>
<stop offset="1" stop-color="#519B4C"/>
</linearGradient>
<linearGradient id="paint3_linear" x1="20.8817" y1="7.8949" x2="8.5021" y2="18.6257" gradientUnits="userSpaceOnUse">
<stop stop-color="#3F843F"/>
<stop offset="1" stop-color="#519B4C"/>
</linearGradient>
<linearGradient id="paint4_linear" x1="15.4143" y1="16.8175" x2="15.4143" y2="11.7541" gradientUnits="userSpaceOnUse">
<stop stop-color="#E5E3E3"/>
<stop offset="1" stop-color="#E5E3E3" stop-opacity="0"/>
</linearGradient>
<linearGradient id="paint5_linear" x1="14.626" y1="21.18" x2="14.3496" y2="26.155" gradientUnits="userSpaceOnUse">
<stop stop-color="#519B4C" stop-opacity="0"/>
<stop offset="1" stop-color="#519B4C"/>
</linearGradient>
<linearGradient id="paint6_linear" x1="10.6431" y1="15.5737" x2="10.5265" y2="21.2848" gradientUnits="userSpaceOnUse">
<stop stop-color="#3F843F"/>
<stop offset="1" stop-color="#519B4C"/>
</linearGradient>
<linearGradient id="paint7_linear" x1="0.943425" y1="12.6344" x2="10.5907" y2="12.6344" gradientUnits="userSpaceOnUse">
<stop stop-color="#3F843F"/>
<stop offset="1" stop-color="#519B4C"/>
</linearGradient>
<linearGradient id="paint8_linear" x1="5.76703" y1="16.8175" x2="5.76703" y2="11.7541" gradientUnits="userSpaceOnUse">
<stop stop-color="#E5E3E3"/>
<stop offset="1" stop-color="#E5E3E3" stop-opacity="0"/>
</linearGradient>
<linearGradient id="paint9_linear" x1="10.6054" y1="15.5274" x2="10.6012" y2="19.2084" gradientUnits="userSpaceOnUse">
<stop stop-color="#F9EC31"/>
<stop offset="0.2122" stop-color="#F9DE2E"/>
<stop offset="0.6076" stop-color="#F7BB27"/>
<stop offset="0.9996" stop-color="#F6921E"/>
</linearGradient>
<linearGradient id="paint10_linear" x1="13.2819" y1="18.8727" x2="10.3744" y2="16.5254" gradientUnits="userSpaceOnUse">
<stop stop-color="#F9EC31"/>
<stop offset="0.2122" stop-color="#F9DE2E"/>
<stop offset="0.6076" stop-color="#F7BB27"/>
<stop offset="0.9996" stop-color="#F6921E"/>
</linearGradient>
<linearGradient id="paint11_linear" x1="13.2819" y1="18.8727" x2="10.3744" y2="16.5254" gradientUnits="userSpaceOnUse">
<stop stop-color="#F9EC31"/>
<stop offset="0.2122" stop-color="#F9DE2E"/>
<stop offset="0.6076" stop-color="#F7BB27"/>
<stop offset="0.9996" stop-color="#F6921E"/>
</linearGradient>
<linearGradient id="paint12_linear" x1="5.20322" y1="6.73033" x2="5.20322" y2="3.18152" gradientUnits="userSpaceOnUse">
<stop offset="0.198" stop-color="white" stop-opacity="0"/>
<stop offset="0.9718" stop-color="white"/>
</linearGradient>
<linearGradient id="paint13_linear" x1="15.8901" y1="6.82246" x2="15.8901" y2="3.27364" gradientUnits="userSpaceOnUse">
<stop offset="0.198" stop-color="white" stop-opacity="0"/>
<stop offset="0.9718" stop-color="white"/>
</linearGradient>
<linearGradient id="paint14_linear" x1="10.6443" y1="15.2228" x2="10.5603" y2="19.3342" gradientUnits="userSpaceOnUse">
<stop stop-color="#F9EC31"/>
<stop offset="0.2122" stop-color="#F9DE2E"/>
<stop offset="0.6076" stop-color="#F7BB27"/>
<stop offset="0.9996" stop-color="#F6921E"/>
</linearGradient>
<linearGradient id="paint15_linear" x1="12.6549" y1="15.6899" x2="9.0597" y2="16.9404" gradientUnits="userSpaceOnUse">
<stop offset="0.00130208" stop-color="#F9EC31" stop-opacity="0"/>
<stop offset="0.2133" stop-color="#F9DE2E" stop-opacity="0.2123"/>
<stop offset="0.6082" stop-color="#F7BB27" stop-opacity="0.6079"/>
<stop offset="0.9996" stop-color="#F6921E"/>
</linearGradient>
<linearGradient id="paint16_linear" x1="11.1862" y1="18.8245" x2="10.4923" y2="13.7665" gradientUnits="userSpaceOnUse">
<stop offset="0.198" stop-color="white" stop-opacity="0"/>
<stop offset="0.9718" stop-color="white"/>
</linearGradient>
<clipPath id="clip0">
<rect width="22" height="24" fill="white"/>
</clipPath>
</defs>
</svg>
